<mxfile host="app.diagrams.net" modified="2023-07-06T23:55:25.756Z" agent="Mozilla/5.0 (X11; Ubuntu; Linux x86_64; rv:109.0) Gecko/20100101 Firefox/115.0" version="21.6.1" etag="w4Qmo2n7Ofvy0YCVxNUR" type="github">
  <diagram name="Page-1" id="emOr_Le5b6Draqnnsamu">
    <mxGraphModel>
      <root>
        <mxCell id="0" />
        <mxCell id="1" parent="0" />
      </root>
    </mxGraphModel>
  </diagram>
</mxfile>
